# xmcd CD database file
#
# Track frame offsets:
#	187
#	24179
#	47264
#	63794
#	83039
#	99564
#	117887
#	135307
#	149687
#	168907
#	190027
#	210249
#	232457
#	254294
#
# Disc length: 3639 seconds
#
# Revision: 0
# Processed by: cddbd v1.5.1PL0 Copyright (c) Steve Scherf et al.
# Submitted via: CDex 1.51
#
DISCID=b10e350e
DTITLE=Def Leppard - Retro Active
DYEAR=1992
DGENRE=Hard Rock
TTITLE0=Desert Song
TTITLE1=Fractured Love
TTITLE2=Action
TTITLE3=Two Steps Behind (Acoustic Version)
TTITLE4=She's Too Tough
TTITLE5=Miss You In A Heartbeat
TTITLE6=Only After Dark
TTITLE7=Ride Into the Sun
TTITLE8=From the Inside
TTITLE9=Ring of Fire
TTITLE10=I Wanna Be Your Hero
TTITLE11=Miss You In A Heatbeat (Electric Version)
TTITLE12=Two Steps Behind (Electric Version)
TTITLE13=Miss You In A Heartbeat (Acoustic Version)
EXTD=YEAR: 1992
EXTT0=
EXTT1=
EXTT2=
EXTT3=
EXTT4=
EXTT5=
EXTT6=
EXTT7=
EXTT8=
EXTT9=
EXTT10=
EXTT11=
EXTT12=
EXTT13=
PLAYORDER=
